<?xml version="1.0" encoding="UTF-8"?>
<svg width="484px" height="300px" viewBox="0 0 484 300" version="1.1" xmlns="http://www.w3.org/2000/svg" xmlns:xlink="http://www.w3.org/1999/xlink">
    <!-- Generator: Sketch 52.4 (67378) - http://www.bohemiancoding.com/sketch -->
    <title>Group 12</title>
    <desc>Created with Sketch.</desc>
    <g id="High-Fidelity-Comps" stroke="none" stroke-width="1" fill="none" fill-rule="evenodd">
        <g id="Desktop-HD-Copy" transform="translate(-956.000000, -2264.000000)" fill-rule="nonzero" stroke="#FFF0CE">
            <g id="Group-10" transform="translate(0.000000, 2264.000000)">
                <g id="Group-8">
                    <g id="Group-12" transform="translate(674.000000, -691.000000)">
                        <g id="Group-9" transform="translate(272.000000, 0.000000)">
                            <rect id="Rectangle-Copy-55" transform="translate(495.000000, 495.582215) rotate(45.000000) translate(-495.000000, -495.582215) " x="145.5" y="146.082215" width="699" height="699"></rect>
                            <rect id="Rectangle-Copy-56" transform="translate(495.289322, 495.871537) rotate(45.000000) translate(-495.289322, -495.871537) " x="195.789322" y="196.371537" width="599" height="599"></rect>
                            <rect id="Rectangle-Copy-57" transform="translate(494.578644, 495.160859) rotate(45.000000) translate(-494.578644, -495.160859) " x="245.078644" y="245.660859" width="499" height="499"></rect>
                            <rect id="Rectangle-Copy-58" transform="translate(495.867966, 495.450181) rotate(45.000000) translate(-495.867966, -495.450181) " x="296.367966" y="295.950181" width="399" height="399"></rect>
                            <rect id="Rectangle-Copy-59" transform="translate(495.157288, 495.739503) rotate(45.000000) translate(-495.157288, -495.739503) " x="345.657288" y="346.239503" width="299" height="299"></rect>
                        </g>
                        <g id="Group-9-Copy" transform="translate(0.000000, 778.000000)">
                            <rect id="Rectangle-Copy-55" transform="translate(495.000000, 495.582215) rotate(45.000000) translate(-495.000000, -495.582215) " x="145.5" y="146.082215" width="699" height="699"></rect>
                            <rect id="Rectangle-Copy-56" transform="translate(495.289322, 495.871537) rotate(45.000000) translate(-495.289322, -495.871537) " x="195.789322" y="196.371537" width="599" height="599"></rect>
                            <rect id="Rectangle-Copy-57" transform="translate(494.578644, 495.160859) rotate(45.000000) translate(-494.578644, -495.160859) " x="245.078644" y="245.660859" width="499" height="499"></rect>
                            <rect id="Rectangle-Copy-58" transform="translate(495.867966, 495.450181) rotate(45.000000) translate(-495.867966, -495.450181) " x="296.367966" y="295.950181" width="399" height="399"></rect>
                        </g>
                    </g>
                </g>
            </g>
        </g>
    </g>
</svg>