<?xml version="1.0" encoding="UTF-8"?>
<svg width="739px" height="144px" viewBox="0 0 739 144" version="1.1" xmlns="http://www.w3.org/2000/svg" xmlns:xlink="http://www.w3.org/1999/xlink">
    <!-- Generator: Sketch 52.4 (67378) - http://www.bohemiancoding.com/sketch -->
    <title>Group 2</title>
    <desc>Created with Sketch.</desc>
    <g id="High-Fidelity-Comps" stroke="none" stroke-width="1" fill="none" fill-rule="evenodd">
        <g id="Desktop-HD-Copy-3" transform="translate(-700.000000, -96.000000)" fill-rule="nonzero" stroke="#D9D9D9">
            <g id="Group-7" transform="translate(-1.000000, 96.000000)">
                <g id="Group-2" transform="translate(695.000000, -345.000000)">
                    <rect id="Rectangle" transform="translate(494.974747, 495.000431) rotate(45.000000) translate(-494.974747, -495.000431) " x="145.474747" y="145.500431" width="699" height="699"></rect>
                    <rect id="Rectangle" transform="translate(494.974747, 495.000431) rotate(45.000000) translate(-494.974747, -495.000431) " x="195.474747" y="195.500431" width="599" height="599"></rect>
                    <rect id="Rectangle" transform="translate(494.974747, 495.000431) rotate(45.000000) translate(-494.974747, -495.000431) " x="245.474747" y="245.500431" width="499" height="499"></rect>
                    <rect id="Rectangle" transform="translate(494.974747, 495.000431) rotate(45.000000) translate(-494.974747, -495.000431) " x="295.474747" y="295.500431" width="399" height="399"></rect>
                    <rect id="Rectangle" transform="translate(494.974747, 495.000431) rotate(45.000000) translate(-494.974747, -495.000431) " x="345.474747" y="345.500431" width="299" height="299"></rect>
                    <rect id="Rectangle" transform="translate(494.974747, 495.000431) rotate(45.000000) translate(-494.974747, -495.000431) " x="395.474747" y="395.500431" width="199" height="199"></rect>
                    <rect id="Rectangle" transform="translate(494.974747, 495.000431) rotate(45.000000) translate(-494.974747, -495.000431) " x="445.474747" y="445.500431" width="99" height="99"></rect>
                </g>
            </g>
        </g>
    </g>
</svg>
