<?xml version="1.0" encoding="UTF-8"?>
<svg width="16px" height="16px" viewBox="0 0 16 16" version="1.1" xmlns="http://www.w3.org/2000/svg" xmlns:xlink="http://www.w3.org/1999/xlink">
    <!-- Generator: Sketch 52.4 (67378) - http://www.bohemiancoding.com/sketch -->
    <title>favicon</title>
    <desc>Created with Sketch.</desc>
    <g id="favicon" stroke="none" stroke-width="1" fill="none" fill-rule="evenodd">
        <rect id="Rectangle" fill="#444444" fill-rule="nonzero" x="0" y="0" width="16" height="16"></rect>
        <path d="M1,6 L3.45801527,6 C4.01374324,6 4.50415394,6.10093198 4.92926209,6.30279898 C5.35437023,6.50466598 5.6844772,6.79321271 5.91959288,7.16844784 C6.15470855,7.54368296 6.27226463,7.98540882 6.27226463,8.49363868 C6.27226463,9.00186853 6.15470855,9.44359439 5.91959288,9.81882952 C5.6844772,10.1940646 5.35437023,10.4826114 4.92926209,10.6844784 C4.50415394,10.8863454 4.01374324,10.9872774 3.45801527,10.9872774 L1,10.9872774 L1,6 Z M3.38676845,9.67633588 C3.74775414,9.67633588 4.03630087,9.57302902 4.2524173,9.36641221 C4.46853374,9.1597954 4.57659033,8.8688738 4.57659033,8.49363868 C4.57659033,8.11840355 4.46853374,7.82748195 4.2524173,7.62086514 C4.03630087,7.41424833 3.74775414,7.31094148 3.38676845,7.31094148 L2.68142494,7.31094148 L2.68142494,9.67633588 L3.38676845,9.67633588 Z M15,6 L13.4040712,10.9872774 L11.6015267,10.9872774 L10.7964377,8.32264631 L9.94860051,10.9872774 L8.14605598,10.9872774 L6.55012723,6 L8.28142494,6 L9.15063613,8.83562341 L10.0697201,6 L11.6157761,6 L12.4849873,8.87124682 L13.4040712,6 L15,6 Z" id="DW" fill="#FFFFFF"></path>
    </g>
</svg>